<svg width="32" height="32" viewBox="0 0 32 32" fill="none" xmlns="http://www.w3.org/2000/svg">
<rect x="0.4" y="0.399512" width="31.2" height="30.3111" rx="15.1556" fill="white" stroke="#CDCDCD" stroke-width="0.8"/>
<g clip-path="url(#clip0)">
<path d="M18.3812 20.5009C18.4371 20.5679 18.4789 20.645 18.5041 20.7278C18.5294 20.8105 18.5375 20.8973 18.5281 20.9831C18.5187 21.0689 18.492 21.1521 18.4494 21.2279C18.4069 21.3036 18.3493 21.3704 18.2801 21.4245C18.1598 21.5183 18.01 21.5692 17.8557 21.5686C17.7551 21.5689 17.6556 21.5473 17.5647 21.5054C17.4738 21.4634 17.3936 21.4022 17.3302 21.3262L12.9513 16.0864C12.8539 15.9698 12.8008 15.8241 12.8008 15.6738C12.8008 15.5236 12.8539 15.3779 12.9513 15.2612L17.3302 10.0214C17.386 9.95433 17.4548 9.89857 17.5327 9.85732C17.6106 9.81608 17.696 9.79015 17.7843 9.78103C17.8725 9.77191 17.9616 9.77976 18.0467 9.80415C18.1318 9.82854 18.2111 9.86898 18.2801 9.92317C18.3491 9.97736 18.4065 10.0442 18.4489 10.12C18.4913 10.1957 18.518 10.2788 18.5274 10.3646C18.5368 10.4503 18.5287 10.537 18.5036 10.6198C18.4785 10.7025 18.4369 10.7796 18.3812 10.8467L14.3391 15.6738L18.3812 20.5009Z" fill="#737272"/>
<path d="M18.3812 20.5009C18.4371 20.5679 18.4789 20.645 18.5041 20.7278C18.5294 20.8105 18.5375 20.8973 18.5281 20.9831C18.5187 21.0689 18.492 21.1521 18.4494 21.2279C18.4069 21.3036 18.3493 21.3704 18.2801 21.4245C18.1598 21.5183 18.01 21.5692 17.8557 21.5686C17.7551 21.5689 17.6556 21.5473 17.5647 21.5054C17.4738 21.4634 17.3936 21.4022 17.3302 21.3262L12.9513 16.0864C12.8539 15.9698 12.8008 15.8241 12.8008 15.6738C12.8008 15.5236 12.8539 15.3779 12.9513 15.2612L17.3302 10.0214C17.386 9.95433 17.4548 9.89857 17.5327 9.85732C17.6106 9.81608 17.696 9.79015 17.7843 9.78103C17.8725 9.77191 17.9616 9.77976 18.0467 9.80415C18.1318 9.82854 18.2111 9.86898 18.2801 9.92317C18.3491 9.97736 18.4065 10.0442 18.4489 10.12C18.4913 10.1957 18.518 10.2788 18.5274 10.3646C18.5368 10.4503 18.5287 10.537 18.5036 10.6198C18.4785 10.7025 18.4369 10.7796 18.3812 10.8467L14.3391 15.6738L18.3812 20.5009Z" fill="#737272"/>
</g>
<defs>
<clipPath id="clip0">
<rect width="6.06316" height="12.4444" fill="white" transform="translate(12.8008 9.77734)"/>
</clipPath>
</defs>
</svg>
